<svg width="97" height="97" viewBox="0 0 97 97" fill="none" xmlns="http://www.w3.org/2000/svg">
<g clip-path="url(#clip0)">
<path d="M68.7877 42.0211C68.4755 42.0211 68.1552 42.066 67.8348 42.1539L64.2143 43.1512L60.4553 33.993C59.39 31.3986 56.2417 29.2876 53.4373 29.2876H18.2533C15.4486 29.2876 12.3007 31.3986 11.2357 33.993L7.48136 43.1384L3.90566 42.1535C3.58567 42.0656 3.26533 42.0208 2.95318 42.0208C1.24185 42.0208 0 43.3281 0 45.1288V47.2629C0 49.3651 1.71062 51.0757 3.81276 51.0757H4.22244L3.61557 52.5539C2.62608 54.9636 1.8206 59.0447 1.8206 61.6508V79.8444C1.8206 81.9465 3.53121 83.6571 5.63336 83.6571H10.6129C12.715 83.6571 14.4256 81.9465 14.4256 79.8444V75.3012H57.2647V79.8444C57.2647 81.9465 58.9753 83.6571 61.0774 83.6571H66.0562C68.1584 83.6571 69.869 81.9465 69.869 79.8444V61.6512C69.869 59.0454 69.0635 54.9643 68.074 52.5542L67.4672 51.076H67.9277C70.0299 51.076 71.7405 49.3654 71.7405 47.2633V45.1291C71.7408 43.3285 70.4986 42.0211 68.7877 42.0211ZM10.2146 49.0052L15.9017 35.153C16.5388 33.6012 18.4324 32.3312 20.1099 32.3312H51.5808C53.2583 32.3312 55.1519 33.6008 55.789 35.153L61.4761 49.0052C62.1129 50.5571 61.2618 51.8271 59.5843 51.8271H12.1067C10.4288 51.8267 9.57781 50.5571 10.2146 49.0052ZM22.9096 66.5268C22.9096 67.3657 22.2231 68.0516 21.3848 68.0516H10.5815C9.74261 68.0516 9.05637 67.3653 9.05637 66.5268V61.3422C9.05637 60.5037 9.74261 59.8174 10.5815 59.8174H21.3848C22.2231 59.8174 22.9096 60.5037 22.9096 61.3422V66.5268ZM62.5318 66.5268C62.5318 67.3657 61.8452 68.0516 61.007 68.0516H50.2037C49.3655 68.0516 48.6789 67.3653 48.6789 66.5268V61.3422C48.6789 60.5037 49.3655 59.8174 50.2037 59.8174H61.007C61.8452 59.8174 62.5318 60.5037 62.5318 61.3422V66.5268Z" fill="#C40000"/>
<path d="M92.2312 13.3428H74.173C71.5433 13.3428 69.4042 15.4823 69.4042 18.1116V36.1702C69.4042 38.7998 71.5437 40.9393 74.173 40.9393H81.4223V81.4702C81.4223 82.4533 82.2188 83.2498 83.2019 83.2498C84.185 83.2498 84.9816 82.4533 84.9816 81.4702V40.9397H92.2312C94.8609 40.9397 97 38.8002 97 36.1706V18.1119C97 15.4823 94.8609 13.3428 92.2312 13.3428ZM88.1412 28.3158C87.1026 29.2509 85.5728 29.725 83.5945 29.725H80.9795C80.6655 29.725 80.41 29.9809 80.41 30.2948V34.7045C80.41 35.1835 80.0202 35.5729 79.5412 35.5729H77.5607C77.0813 35.5729 76.6919 35.1832 76.6919 34.7045V19.5791C76.6919 19.0996 77.0817 18.7099 77.5607 18.7099H82.5495C85.8543 18.7099 87.088 19.2078 88.1017 20.0681C89.1709 20.9754 89.7127 22.365 89.7127 24.1991C89.7123 25.9912 89.1841 27.3758 88.1412 28.3158Z" fill="#A6AAB4"/>
<path d="M85.3104 22.3616C84.8278 21.9971 83.9739 21.812 82.773 21.812H80.9794C80.6655 21.812 80.4099 22.0676 80.4099 22.3811V26.0053C80.4099 26.3188 80.6655 26.5744 80.9794 26.5744H82.054C82.4487 26.5744 83.0865 26.5452 83.4756 26.5093C83.8532 26.4747 84.9192 26.3203 85.3104 26.0248C85.7799 25.6696 86.018 25.0553 86.018 24.1993C86.018 23.335 85.7799 22.7168 85.3104 22.3616Z" fill="#A6AAB4"/>
</g>
<defs>
<clipPath id="clip0">
<rect width="97" height="97" fill="white"/>
</clipPath>
</defs>
</svg>
