<svg width="93" height="93" viewBox="0 0 93 93" fill="none" xmlns="http://www.w3.org/2000/svg">
<path d="M88.426 47.2649H79.0619L76.4427 30.2354C78.1304 31.3558 80.1534 32.0099 82.3277 32.0099C88.2127 32.0099 93 27.2197 93 21.3363C93 15.453 88.2127 10.6641 82.3277 10.6641C76.4427 10.6641 71.6554 15.4513 71.6554 21.3363C71.6554 22.5729 71.8779 23.7558 72.2669 24.8613L66.4339 19.8669C65.2477 18.8515 63.737 18.2982 62.1771 18.2982H41.1636C38.642 18.2982 36.5897 20.3502 36.5897 22.8721C36.5897 25.3941 38.6417 27.4461 41.1636 27.4461H60.0396L44.1731 39.9065C41.2918 42.1706 39.6389 45.5687 39.6389 49.2339C39.6389 53.2894 41.6759 57.0184 45.0894 59.2138L59.2375 68.3079L47.3108 73.278C46.1126 73.7766 45.1703 74.7615 44.7251 75.9782C44.2798 77.1979 44.3637 78.5593 44.9583 79.7149C45.7815 81.3126 47.4129 82.2428 49.1097 82.2428C49.7394 82.2428 50.3782 82.1146 50.9864 81.845L67.4275 74.5878C69.995 73.3925 71.6551 70.787 71.6551 67.9511C71.6551 66.0211 70.8729 64.1334 69.5085 62.7723L60.1642 53.4267L68.9731 45.7167L69.6532 51.1548C70.0266 54.1507 72.5833 56.4131 75.6006 56.4131H88.4254C90.947 56.4131 92.9993 54.3611 92.9993 51.8391C93 49.3169 90.948 47.2649 88.426 47.2649ZM82.3277 13.7116C86.5308 13.7116 89.9508 17.1312 89.9508 21.3347C89.9508 25.5382 86.5311 28.9578 82.3277 28.9578C78.1245 28.9578 74.7046 25.5382 74.7046 21.3347C74.7046 17.1312 78.1245 13.7116 82.3277 13.7116ZM88.426 53.3632H75.6013C74.1195 53.3632 72.863 52.2486 72.6786 50.7775L71.2866 39.645L55.7021 53.278L67.3531 64.929C68.1506 65.7232 68.6062 66.8242 68.6062 67.9521C68.6062 69.6063 67.6367 71.1278 66.1669 71.8138L49.753 79.057C48.9725 79.406 48.0575 79.0797 47.6673 78.3222C47.4584 77.915 47.4308 77.4577 47.5866 77.0278C47.7437 76.6011 48.0608 76.2686 48.4817 76.0933L61.4391 70.6949C62.2883 70.3427 62.8663 69.5546 62.947 68.6384C63.0276 67.7222 62.598 66.844 61.8249 66.3483L46.7377 56.6485C44.2024 55.0158 42.6884 52.2441 42.6884 49.23C42.6884 46.5071 43.9172 43.9793 46.0576 42.2961L64.8009 27.5762L61.6144 24.3959H41.1636C40.3235 24.3959 39.6389 23.7129 39.6389 22.8712C39.6389 22.0294 40.3235 21.3464 41.1636 21.3464H62.1771C63.0094 21.3464 63.816 21.6391 64.4486 22.1803L73.2836 29.7576L76.4456 50.3137H88.4257C89.2658 50.3137 89.9505 50.9968 89.9505 51.8385C89.9505 52.6802 89.2661 53.3632 88.426 53.3632Z" fill="#C40000"/>
<path d="M22.439 78.5143C21.6737 79.385 20.3854 79.5343 19.4448 78.8633C18.9296 78.4958 18.6001 77.9471 18.5195 77.3204C18.4388 76.6923 18.6171 76.0809 19.0226 75.5946L39.2874 51.2773L36.9456 49.3242L16.6792 73.6428C15.7386 74.7711 15.307 76.2545 15.4947 77.712C15.6824 79.1694 16.4766 80.4944 17.6732 81.3482C18.6063 82.013 19.6809 82.336 20.7497 82.336C22.2257 82.336 23.6876 81.717 24.732 80.5247L42.3105 60.4551L40.0159 58.4457L22.439 78.5143Z" fill="#C40000"/>
<path d="M45.7376 30.4941H12.1967V33.5433H45.7376V30.4941Z" fill="#C40000"/>
<path d="M9.14754 30.4941H3.04919V33.5433H9.14754V30.4941Z" fill="#C40000"/>
<path d="M38.1148 36.5923H15.2458V39.6415H38.1148V36.5923Z" fill="#C40000"/>
<path d="M12.1967 36.5923H6.09839V39.6415H12.1967V36.5923Z" fill="#C40000"/>
<path d="M36.5904 42.6909H16.7706V45.7401H36.5904V42.6909Z" fill="#C40000"/>
<path d="M13.7215 42.6909H9.14758V45.7401H13.7215V42.6909Z" fill="#C40000"/>
<path d="M35.0657 24.396H9.14758V27.4452H35.0657V24.396Z" fill="#C40000"/>
<path d="M6.09835 24.396H0V27.4452H6.09835V24.396Z" fill="#C40000"/>
<path d="M35.0657 27.4448H3.04919V30.494H35.0657V27.4448Z" fill="#E5E5E5"/>
<path d="M45.7377 33.5435H6.09839V36.5926H45.7377V33.5435Z" fill="#E5E5E5"/>
<path d="M38.1149 39.6416H9.14758V42.6908H38.1149V39.6416Z" fill="#E5E5E5"/>
<path d="M36.5901 45.7402H12.1967V48.7894H36.5901V45.7402Z" fill="#E5E5E5"/>
</svg>
