<svg width="98" height="98" viewBox="0 0 98 98" fill="none" xmlns="http://www.w3.org/2000/svg">
<path d="M78.4 57.1667V34.3C78.4231 23.5558 70.3952 14.4983 59.7259 13.2302L65.1698 2.3631C65.4234 1.85587 65.3955 1.25294 65.0956 0.770436C64.7958 0.28873 64.2678 -0.00316422 63.7 2.58824e-05H34.3C33.7337 2.58824e-05 33.2082 0.292718 32.9099 0.774424C32.6124 1.25533 32.5853 1.85667 32.8381 2.3631L38.2756 13.2302C27.6239 14.5317 19.6135 23.5693 19.6 34.3V63.7H22.8666V34.3C22.8786 24.382 30.9153 16.3453 40.8333 16.3334H57.1666C61.9335 16.3262 66.5081 18.2171 69.8784 21.5883C73.2495 24.9586 75.1405 29.5332 75.1333 34.3V57.1667H78.4ZM56.157 13.0667H41.843L36.943 3.26669H61.057L56.157 13.0667Z" fill="#A6AAB4"/>
<path d="M35.1166 24.4005C36.0107 23.8813 36.9717 23.4865 37.9734 23.2281L37.1567 20.0659C35.8687 20.4001 34.6317 20.9073 33.4801 21.5732L35.1166 24.4005Z" fill="#757F8C"/>
<path d="M26.1334 40.8333H29.4V34.3C29.392 31.208 30.6458 28.2468 32.8724 26.1006L30.5971 23.7583C27.7348 26.5169 26.1222 30.3243 26.1334 34.3V40.8333Z" fill="#757F8C"/>
<path d="M4.65836 80.2748L32.3875 95.3983C35.5083 97.1042 39.0078 97.999 42.5648 97.9998H96.3667C97.2687 97.9998 98 97.2685 98 96.3665V66.9665C98 66.0645 97.2687 65.3332 96.3667 65.3332H83.867L83.6804 65.188C81.7624 63.6903 79.6417 62.4716 77.3823 61.5664C69.4573 58.3325 60.458 59.1276 53.2221 63.6998H40.8333C38.2326 63.699 35.7866 64.9376 34.2474 67.0343C32.7089 69.131 32.2607 71.8354 33.0407 74.3165L12.8497 64.1999C9.85105 62.6941 6.255 63.0379 3.59685 65.0851C1.33666 66.7783 0.00479181 69.4348 6.65586e-06 72.2589V72.4383C-0.00398096 75.7074 1.78407 78.7164 4.65836 80.2748ZM84.9333 68.5998H94.7333V94.7332H84.9333V68.5998ZM3.26667 72.2589C3.27864 70.4301 4.15671 68.7147 5.63373 67.6364C7.29657 66.3819 9.52805 66.1817 11.3879 67.1204L36.8369 79.8601C37.0626 79.9741 37.313 80.0332 37.5667 80.0332H62.0667V76.7665H40.8333C38.1273 76.7665 35.9333 74.5725 35.9333 71.8665C35.9333 69.1605 38.1273 66.9665 40.8333 66.9665H53.7038C54.0236 66.9657 54.3362 66.8724 54.6042 66.6969C61.0036 62.4828 69.0705 61.6964 76.1637 64.5962C78.1376 65.3874 79.9903 66.4521 81.6667 67.7584V94.7332H42.5648C39.5549 94.7324 36.5945 93.9747 33.9539 92.5312L6.21672 77.4053C4.39517 76.4172 3.26269 74.5103 3.26667 72.4383V72.2589Z" fill="#C40000"/>
<path d="M88.2 86.5669H91.4666V89.8336H88.2V86.5669Z" fill="#C40000"/>
<path d="M46.388 46.612V48.736H54.38V50.788H46.388V55H42.752V50.788H39.08V48.736H42.752V29.8H52.652C55.94 29.8 58.508 30.532 60.356 31.996C62.204 33.436 63.128 35.5 63.128 38.188C63.128 40.9 62.204 42.988 60.356 44.452C58.508 45.892 55.94 46.612 52.652 46.612H46.388ZM59.492 38.224C59.492 36.52 58.904 35.212 57.728 34.3C56.552 33.388 54.86 32.932 52.652 32.932H46.388V43.624H52.652C54.836 43.624 56.516 43.156 57.692 42.22C58.892 41.26 59.492 39.928 59.492 38.224Z" fill="#757F8C"/>
</svg>
