<svg width="98" height="98" viewBox="0 0 98 98" fill="none" xmlns="http://www.w3.org/2000/svg">
<g clip-path="url(#clip0)">
<path d="M73.8036 15.1888C74.2293 15.3149 74.6713 15.3787 75.1148 15.3787C76.4533 15.3748 77.7287 14.8083 78.629 13.8177C78.9473 13.9632 79.2749 14.0862 79.6102 14.185C83.4411 15.3024 87.4533 13.1104 88.5832 9.28338C89.7123 5.4564 87.5327 1.43722 83.7096 0.295664C81.7276 -0.288732 79.5908 0.00152088 77.8361 1.0925C76.0821 2.18347 74.8767 3.97168 74.5242 6.00811C72.3197 6.29681 70.6179 8.08968 70.4436 10.3067C70.2693 12.5236 71.6707 14.5593 73.8036 15.1888ZM73.6784 10.2444C73.8698 9.59853 74.4627 9.15498 75.1366 9.15342C75.2712 9.15342 75.4059 9.17132 75.535 9.20867C75.5553 9.2149 75.5747 9.22035 75.5926 9.22579C76.0953 9.36975 76.6361 9.2577 77.0408 8.9262C77.4446 8.59471 77.661 8.08579 77.6189 7.56521C77.4664 5.64861 78.6827 3.88997 80.5293 3.35538C82.3758 2.82078 84.3438 3.65886 85.2387 5.35991C86.1328 7.06096 85.7079 9.15731 84.2216 10.3759C82.7345 11.5945 80.5962 11.5992 79.1037 10.3884C78.6951 10.0561 78.1489 9.94637 77.6438 10.0965C77.1388 10.2467 76.7404 10.6366 76.5801 11.1385C76.3249 11.9283 75.4821 12.3672 74.6884 12.1229C73.8955 11.8785 73.4449 11.042 73.6784 10.2452V10.2444Z" fill="#757F8C"/>
<path d="M66.0269 22.0459C68.6127 22.0459 70.7082 19.9495 70.7082 17.3645C70.7082 14.7787 68.6127 12.6831 66.0269 12.6831C63.4418 12.6831 61.3455 14.7787 61.3455 17.3645C61.3486 19.9488 63.4426 22.0428 66.0269 22.0459ZM66.0269 15.8704C66.8525 15.8704 67.5209 16.5389 67.5209 17.3645C67.5209 18.1893 66.8525 18.8586 66.0269 18.8586C65.202 18.8586 64.5328 18.1893 64.5328 17.3645C64.5336 16.5397 65.202 15.8712 66.0269 15.8704Z" fill="#757F8C"/>
<path d="M47.9984 75.2904C47.9984 74.4103 47.2849 73.6968 46.4048 73.6968H38.6357C37.7556 73.6968 37.042 74.4103 37.042 75.2904V80.2706C37.042 81.1507 37.7556 81.8643 38.6357 81.8643H46.4048C47.2849 81.8643 47.9984 81.1507 47.9984 80.2706V75.2904ZM40.2293 76.8841H45.0103V78.8762H40.2293V76.8841Z" fill="#C40000"/>
<path d="M60.5487 75.2904C60.5487 74.4103 59.8352 73.6968 58.9551 73.6968H51.186C50.3059 73.6968 49.5923 74.4103 49.5923 75.2904V80.2706C49.5923 81.1507 50.3059 81.8643 51.186 81.8643H58.9551C59.8352 81.8643 60.5487 81.1507 60.5487 80.2706V75.2904ZM52.7796 76.8841H57.5606V78.8762H52.7796V76.8841Z" fill="#C40000"/>
<path d="M47.9984 85.2509C47.9984 84.3708 47.2849 83.6572 46.4048 83.6572H38.6357C37.7556 83.6572 37.042 84.3708 37.042 85.2509V90.2311C37.042 91.1112 37.7556 91.8248 38.6357 91.8248H46.4048C47.2849 91.8248 47.9984 91.1112 47.9984 90.2311V85.2509ZM40.2293 86.8446H45.0103V88.8366H40.2293V86.8446Z" fill="#C40000"/>
<path d="M60.5487 85.2509C60.5487 84.3708 59.8352 83.6572 58.9551 83.6572H51.186C50.3059 83.6572 49.5923 84.3708 49.5923 85.2509V90.2311C49.5923 91.1112 50.3059 91.8248 51.186 91.8248H58.9551C59.8352 91.8248 60.5487 91.1112 60.5487 90.2311V85.2509ZM52.7796 86.8446H57.5606V88.8366H52.7796V86.8446Z" fill="#C40000"/>
<path d="M94.7938 49.7614C94.2934 49.4782 93.6803 49.4852 93.1861 49.7793L76.0091 60.0471L71.8942 24.2822C71.7985 23.483 71.1145 22.8854 70.3099 22.8987H60.7479C59.944 22.8854 59.26 23.483 59.1651 24.2822L55.7186 54.2708L35.6476 66.2583V51.1473C35.6461 50.573 35.3372 50.0439 34.8376 49.7614C34.338 49.4782 33.7248 49.4852 33.2315 49.7793L3.16504 67.7477C2.68103 68.0349 2.383 68.5547 2.37988 69.1165V96.3979C2.38689 97.2827 3.10512 97.997 3.98989 98.0001H94.0001C94.8848 97.997 95.6023 97.2827 95.6093 96.3979V51.1473C95.6062 50.5723 95.2949 50.0431 94.7938 49.7614ZM62.1688 26.086H68.8889L70.8211 42.8732C68.5419 43.3058 62.5158 43.3198 60.2358 42.8872L62.1688 26.086ZM59.8732 46.0045C60.1051 46.041 60.3238 46.0683 60.5168 46.0932C63.8488 46.4449 67.2089 46.4449 70.5418 46.0932C70.7347 46.0683 70.9534 46.041 71.1853 46.0045L72.961 61.8415L65.5289 66.2583V51.1473C65.5499 50.58 65.2565 50.0478 64.7663 49.7614C64.276 49.4751 63.6675 49.4821 63.1843 49.7793L59.1503 52.1978L59.8732 46.0045ZM62.3415 53.9572V94.8128H35.6476V69.9709L62.3415 53.9572ZM5.56721 70.0207L32.4603 53.9572V94.8128H5.56721V70.0207ZM92.422 94.8128H65.5289V69.9709L92.422 53.9572V94.8128Z" fill="#C40000"/>
<path d="M78.079 75.2904C78.079 74.4103 77.3654 73.6968 76.4853 73.6968H68.7162C67.8361 73.6968 67.1226 74.4103 67.1226 75.2904V80.2706C67.1226 81.1507 67.8361 81.8643 68.7162 81.8643H76.4853C77.3654 81.8643 78.079 81.1507 78.079 80.2706V75.2904ZM70.3099 76.8841H74.8917V78.8762H70.3099V76.8841Z" fill="#C40000"/>
<path d="M90.629 75.2904C90.629 74.4103 89.9155 73.6968 89.0354 73.6968H81.2663C80.3862 73.6968 79.6726 74.4103 79.6726 75.2904V80.2706C79.6726 81.1507 80.3862 81.8643 81.2663 81.8643H89.0354C89.9155 81.8643 90.629 81.1507 90.629 80.2706V75.2904ZM82.8599 76.8841H87.4417V78.8762H82.8599V76.8841Z" fill="#C40000"/>
<path d="M78.079 85.2509C78.079 84.3708 77.3654 83.6572 76.4853 83.6572H68.7162C67.8361 83.6572 67.1226 84.3708 67.1226 85.2509V90.2311C67.1226 91.1112 67.8361 91.8248 68.7162 91.8248H76.4853C77.3654 91.8248 78.079 91.1112 78.079 90.2311V85.2509ZM70.3099 86.8446H74.8917V88.8366H70.3099V86.8446Z" fill="#C40000"/>
<path d="M90.629 85.2509C90.629 84.3708 89.9155 83.6572 89.0354 83.6572H81.2663C80.3862 83.6572 79.6726 84.3708 79.6726 85.2509V90.2311C79.6726 91.1112 80.3862 91.8248 81.2663 91.8248H89.0354C89.9155 91.8248 90.629 91.1112 90.629 90.2311V85.2509ZM82.8599 86.8446H87.4417V88.8366H82.8599V86.8446Z" fill="#C40000"/>
<path d="M18.1173 75.2904C18.1173 74.4103 17.4038 73.6968 16.5237 73.6968H8.75455C7.87446 73.6968 7.16089 74.4103 7.16089 75.2904V80.2706C7.16089 81.1507 7.87446 81.8643 8.75455 81.8643H16.5237C17.4038 81.8643 18.1173 81.1507 18.1173 80.2706V75.2904ZM14.93 78.8762H10.3482V76.8841H14.93V78.8762Z" fill="#C40000"/>
<path d="M30.6674 75.2904C30.6674 74.4103 29.9538 73.6968 29.0737 73.6968H21.3046C20.4245 73.6968 19.7109 74.4103 19.7109 75.2904V80.2706C19.7109 81.1507 20.4245 81.8643 21.3046 81.8643H29.0737C29.9538 81.8643 30.6674 81.1507 30.6674 80.2706V75.2904ZM27.4801 78.8762H22.8983V76.8841H27.4801V78.8762Z" fill="#C40000"/>
<path d="M18.1173 85.2509C18.1173 84.3708 17.4038 83.6572 16.5237 83.6572H8.75455C7.87446 83.6572 7.16089 84.3708 7.16089 85.2509V90.2311C7.16089 91.1112 7.87446 91.8248 8.75455 91.8248H16.5237C17.4038 91.8248 18.1173 91.1112 18.1173 90.2311V85.2509ZM14.93 88.8366H10.3482V86.8446H14.93V88.8366Z" fill="#C40000"/>
<path d="M30.6674 85.2509C30.6674 84.3708 29.9538 83.6572 29.0737 83.6572H21.3046C20.4245 83.6572 19.7109 84.3708 19.7109 85.2509V90.2311C19.7109 91.1112 20.4245 91.8248 21.3046 91.8248H29.0737C29.9538 91.8248 30.6674 91.1112 30.6674 90.2311V85.2509ZM27.4801 88.8366H22.8983V86.8446H27.4801V88.8366Z" fill="#C40000"/>
</g>
<defs>
<clipPath id="clip0">
<rect width="98" height="98" fill="white"/>
</clipPath>
</defs>
</svg>
