<svg width="88" height="98" viewBox="0 0 88 98" fill="none" xmlns="http://www.w3.org/2000/svg">
<path d="M3.25622 89.5751V17.9382C3.25622 16.6428 3.77082 15.4005 4.68681 14.4845C5.6028 13.5685 6.84515 13.0539 8.14055 13.0539H13.0249V16.3101H11.3968C10.5332 16.3101 9.70494 16.6532 9.09428 17.2638C8.48362 17.8745 8.14055 18.7027 8.14055 19.5663V87.947C8.14055 88.8106 8.48362 89.6388 9.09428 90.2495C9.70494 90.8601 10.5332 91.2032 11.3968 91.2032H50.4486V87.947H11.3968V19.5663H13.0249C13.0249 20.8617 13.5395 22.1041 14.4555 23.0201C15.3715 23.9361 16.6138 24.4507 17.9092 24.4507H53.7276C55.023 24.4507 56.2654 23.9361 57.1814 23.0201C58.0974 22.1041 58.612 20.8617 58.612 19.5663H60.2401V47.1628H63.4963V19.5663C63.4963 18.7027 63.1532 17.8745 62.5426 17.2638C61.9319 16.6532 61.1037 16.3101 60.2401 16.3101H58.612V13.0539H63.4963C64.7917 13.0539 66.034 13.5685 66.95 14.4845C67.866 15.4005 68.3806 16.6428 68.3806 17.9382V47.1628H71.6368V17.9382C71.6343 15.78 70.7758 13.7109 69.2497 12.1848C67.7236 10.6588 65.6545 9.80026 63.4963 9.79767H58.612C58.612 9.36587 58.4404 8.95176 58.1351 8.64643C57.8298 8.3411 57.4157 8.16956 56.9839 8.16956H39.4328C40.0693 7.46937 40.4886 6.5994 40.6399 5.66536C40.7912 4.73133 40.668 3.77346 40.2851 2.90816C39.9023 2.04286 39.2764 1.30738 38.4834 0.791107C37.6905 0.274836 36.7646 0 35.8184 0C34.8722 0 33.9464 0.274836 33.1534 0.791107C32.3605 1.30738 31.7346 2.04286 31.3517 2.90816C30.9689 3.77346 30.8456 4.73133 30.9969 5.66536C31.1482 6.5994 31.5676 7.46937 32.204 8.16956H14.653C14.2212 8.16956 13.8071 8.3411 13.5017 8.64643C13.1964 8.95176 13.0249 9.36587 13.0249 9.79767H8.14055C5.98234 9.80026 3.91326 10.6588 2.38717 12.1848C0.861078 13.7109 0.00258521 15.78 0 17.9382V89.5751C0.00258521 91.7333 0.861078 93.8024 2.38717 95.3285C3.91326 96.8545 5.98234 97.713 8.14055 97.7156H63.4963V94.4594H8.14055C6.84515 94.4594 5.6028 93.9448 4.68681 93.0288C3.77082 92.1128 3.25622 90.8705 3.25622 89.5751ZM35.8184 3.28523C36.1404 3.28523 36.4552 3.38072 36.723 3.55962C36.9907 3.73852 37.1994 3.9928 37.3226 4.29029C37.4458 4.58779 37.4781 4.91515 37.4152 5.23097C37.3524 5.5468 37.1974 5.8369 36.9697 6.06459C36.742 6.29229 36.4519 6.44735 36.1361 6.51017C35.8202 6.57299 35.4929 6.54075 35.1954 6.41752C34.8979 6.29429 34.6436 6.08562 34.4647 5.81787C34.2858 5.55013 34.1903 5.23535 34.1903 4.91334C34.1903 4.48154 34.3618 4.06743 34.6672 3.7621C34.9725 3.45677 35.3866 3.28523 35.8184 3.28523ZM16.2811 11.4258H55.3557V19.5663C55.3557 19.9981 55.1842 20.4123 54.8789 20.7176C54.5736 21.0229 54.1594 21.1944 53.7276 21.1944H17.9092C17.4774 21.1944 17.0633 21.0229 16.758 20.7176C16.4526 20.4123 16.2811 19.9981 16.2811 19.5663V11.4258Z" fill="#A6AAB4"/>
<path d="M66.7525 50.5005C62.5663 50.5005 58.4742 51.7418 54.9936 54.0675C51.513 56.3932 48.8001 59.6988 47.1982 63.5663C45.5962 67.4337 45.1771 71.6894 45.9937 75.7951C46.8104 79.9008 48.8262 83.6721 51.7863 86.6321C54.7463 89.5922 58.5176 91.608 62.6233 92.4247C66.729 93.2413 70.9847 92.8222 74.8521 91.2202C78.7196 89.6183 82.0252 86.9054 84.3509 83.4248C86.6766 79.9442 87.9179 75.852 87.9179 71.6659C87.9114 66.0545 85.6794 60.6747 81.7116 56.7068C77.7437 52.7389 72.3639 50.507 66.7525 50.5005ZM66.7525 89.5751C63.2104 89.5751 59.7478 88.5248 56.8027 86.5569C53.8575 84.589 51.562 81.792 50.2065 78.5195C48.851 75.247 48.4964 71.6461 49.1874 68.172C49.8784 64.698 51.5841 61.5068 54.0888 59.0022C56.5934 56.4975 59.7845 54.7919 63.2586 54.1008C66.7326 53.4098 70.3336 53.7645 73.606 55.12C76.8785 56.4755 79.6755 58.7709 81.6434 61.7161C83.6113 64.6613 84.6617 68.1238 84.6617 71.6659C84.6561 76.414 82.7674 80.966 79.41 84.3235C76.0526 87.6809 71.5006 89.5695 66.7525 89.5751Z" fill="#757F8C"/>
<path d="M76.5212 60.2695H56.9839C56.1203 60.2695 55.292 60.6126 54.6814 61.2233C54.0707 61.8339 53.7277 62.6621 53.7277 63.5258V79.8069C53.7277 80.6705 54.0707 81.4987 54.6814 82.1094C55.292 82.72 56.1203 83.0631 56.9839 83.0631H76.5212C77.3848 83.0631 78.213 82.72 78.8237 82.1094C79.4344 81.4987 79.7774 80.6705 79.7774 79.8069V63.5258C79.7774 62.6621 79.4344 61.8339 78.8237 61.2233C78.213 60.6126 77.3848 60.2695 76.5212 60.2695ZM76.5212 66.782H71.6369V63.5258H76.5212V66.782ZM68.3807 63.5258V70.0382H65.1244V63.5258H68.3807ZM61.8682 63.5258V66.782H56.9839V63.5258H61.8682ZM56.9839 79.8069V70.0382H61.8682V71.6663C61.8682 72.0981 62.0397 72.5122 62.3451 72.8176C62.6504 73.1229 63.0645 73.2944 63.4963 73.2944H70.0088C70.4406 73.2944 70.8547 73.1229 71.16 72.8176C71.4653 72.5122 71.6369 72.0981 71.6369 71.6663V70.0382H76.5212V79.8069H56.9839Z" fill="#C40000"/>
<path d="M34.1903 40.732H30.9341V43.9883H21.1654V34.2196H29.306V30.9634H19.5373C19.1055 30.9634 18.6914 31.1349 18.386 31.4402C18.0807 31.7456 17.9092 32.1597 17.9092 32.5915V45.6164C17.9092 46.0482 18.0807 46.4623 18.386 46.7676C18.6914 47.0729 19.1055 47.2445 19.5373 47.2445H32.5622C32.994 47.2445 33.4081 47.0729 33.7134 46.7676C34.0187 46.4623 34.1903 46.0482 34.1903 45.6164V40.732Z" fill="#757F8C"/>
<path d="M32.5622 53.7568H19.5373C19.1055 53.7568 18.6914 53.9284 18.386 54.2337C18.0807 54.539 17.9092 54.9531 17.9092 55.3849V68.4098C17.9092 68.8416 18.0807 69.2557 18.386 69.5611C18.6914 69.8664 19.1055 70.0379 19.5373 70.0379H32.5622C32.994 70.0379 33.4081 69.8664 33.7134 69.5611C34.0187 69.2557 34.1903 68.8416 34.1903 68.4098V55.3849C34.1903 54.9531 34.0187 54.539 33.7134 54.2337C33.4081 53.9284 32.994 53.7568 32.5622 53.7568ZM30.9341 66.7817H21.1654V57.0131H30.9341V66.7817Z" fill="#757F8C"/>
<path d="M34.6673 31.4404L27.6779 38.4299L23.9446 34.6966L21.6425 36.9988L26.5268 41.8831C26.8321 42.1884 27.2461 42.3598 27.6779 42.3598C28.1096 42.3598 28.5236 42.1884 28.8289 41.8831L36.9695 33.7426L34.6673 31.4404Z" fill="#C40000"/>
<path d="M53.7276 42.3599H40.7028V45.6161H53.7276V42.3599Z" fill="#757F8C"/>
<path d="M53.7276 35.8477H40.7028V39.1039H53.7276V35.8477Z" fill="#757F8C"/>
</svg>
