<svg width="97" height="75" viewBox="0 0 97 75" fill="none" xmlns="http://www.w3.org/2000/svg">
<path d="M96.456 40.8605L76.4013 20.8058C75.9524 20.3539 75.4182 19.9957 74.8297 19.752C74.2412 19.5082 73.6102 19.3837 72.9733 19.3858H45.2337V22.6167H53.3111V46.8491H56.5421V22.6167H72.9733C73.1857 22.6166 73.396 22.6583 73.5923 22.7395C73.7885 22.8207 73.9669 22.9399 74.117 23.0901L76.8747 25.8477H69.466C68.6091 25.8477 67.7873 26.1881 67.1814 26.7941C66.5755 27.4 66.2351 28.2218 66.2351 29.0787V43.6181C66.2351 44.475 66.5755 45.2968 67.1814 45.9028C67.7873 46.5087 68.6091 46.8491 69.466 46.8491H93.6984V59.773C93.6984 60.2015 93.5282 60.6124 93.2252 60.9153C92.9222 61.2183 92.5113 61.3885 92.0829 61.3885H88.7227C88.3364 58.6989 86.9934 56.2388 84.9401 54.4592C82.8867 52.6797 80.2606 51.7001 77.5435 51.7001C74.8263 51.7001 72.2002 52.6797 70.1469 54.4592C68.0935 56.2388 66.7506 58.6989 66.3643 61.3885H43.489C43.1027 58.6989 41.7597 56.2388 39.7064 54.4592C37.653 52.6797 35.0269 51.7001 32.3098 51.7001C29.5926 51.7001 26.9665 52.6797 24.9132 54.4592C22.8598 56.2388 21.5169 58.6989 21.1306 61.3885H17.7704C17.3419 61.3885 16.931 61.2183 16.6281 60.9153C16.3251 60.6124 16.1549 60.2015 16.1549 59.773V45.2336H12.9239V59.773C12.9239 61.0584 13.4345 62.2911 14.3434 63.2C15.2523 64.1089 16.485 64.6195 17.7704 64.6195H21.1306C21.4832 67.0759 22.6365 69.3473 24.4117 71.0814H0V74.3124H77.5435C80.2599 74.3072 82.8839 73.3252 84.9363 71.5456C86.9887 69.7661 88.3326 67.3078 88.7227 64.6195H92.0829C93.3682 64.6195 94.601 64.1089 95.5098 63.2C96.4187 62.2911 96.9293 61.0584 96.9293 59.773V42.0026C96.9293 41.5742 96.759 41.1634 96.456 40.8605ZM24.2323 63.004C24.2323 61.4064 24.7061 59.8447 25.5936 58.5164C26.4812 57.1881 27.7427 56.1528 29.2187 55.5414C30.6946 54.93 32.3187 54.7701 33.8856 55.0817C35.4525 55.3934 36.8917 56.1627 38.0214 57.2924C39.1511 58.422 39.9204 59.8613 40.232 61.4281C40.5437 62.995 40.3837 64.6191 39.7724 66.0951C39.161 67.571 38.1257 68.8326 36.7974 69.7201C35.469 70.6077 33.9073 71.0814 32.3098 71.0814C30.1683 71.0789 28.1153 70.227 26.601 68.7128C25.0867 67.1985 24.2349 65.1455 24.2323 63.004ZM40.2079 71.0814C41.983 69.3473 43.1364 67.0759 43.489 64.6195H66.3643C66.7169 67.0759 67.8702 69.3473 69.6454 71.0814H40.2079ZM77.5435 71.0814C75.9459 71.0814 74.3842 70.6077 73.0559 69.7201C71.7276 68.8326 70.6923 67.571 70.0809 66.0951C69.4695 64.6191 69.3096 62.995 69.6212 61.4281C69.9329 59.8613 70.7022 58.422 71.8319 57.2924C72.9615 56.1627 74.4008 55.3934 75.9676 55.0817C77.5345 54.7701 79.1586 54.93 80.6346 55.5414C82.1105 56.1528 83.3721 57.1881 84.2596 58.5164C85.1472 59.8447 85.6209 61.4064 85.6209 63.004C85.6184 65.1455 84.7665 67.1985 83.2523 68.7128C81.738 70.227 79.685 71.0789 77.5435 71.0814ZM69.466 43.6181V29.0787H80.1056L93.6984 42.6714V43.6181H69.466Z" fill="#C40000"/>
<path d="M33.9253 61.3887H30.6943V64.6197H33.9253V61.3887Z" fill="#C40000"/>
<path d="M79.159 61.3887H75.928V64.6197H79.159V61.3887Z" fill="#C40000"/>
<path d="M8.07745 56.542H0V59.773H8.07745V56.542Z" fill="#C40000"/>
<path d="M8.07742 50.0801H3.23096V53.3111H8.07742V50.0801Z" fill="#C40000"/>
<path d="M8.07741 43.6182H4.84644V46.8491H8.07741V43.6182Z" fill="#C40000"/>
<path d="M21.0014 42.0027C25.155 42.0027 29.2154 40.771 32.6691 38.4634C36.1227 36.1557 38.8145 32.8757 40.4041 29.0382C41.9936 25.2007 42.4095 20.9781 41.5992 16.9042C40.7888 12.8303 38.7887 9.08826 35.8516 6.15116C32.9145 3.21407 29.1724 1.21389 25.0985 0.403545C21.0247 -0.406797 16.802 0.00909956 12.9645 1.59864C9.12699 3.18819 5.84703 5.87998 3.53937 9.33364C1.23171 12.7873 0 16.8477 0 21.0014C0.00641345 26.5693 2.22111 31.9074 6.15824 35.8445C10.0954 39.7816 15.4334 41.9963 21.0014 42.0027ZM21.0014 3.23099C24.516 3.23099 27.9517 4.2732 30.8741 6.22584C33.7964 8.17847 36.074 10.9538 37.419 14.2009C38.764 17.448 39.116 21.0211 38.4303 24.4682C37.7446 27.9153 36.0521 31.0817 33.5669 33.5669C31.0817 36.0522 27.9153 37.7446 24.4682 38.4303C21.0211 39.116 17.448 38.7641 14.2009 37.4191C10.9538 36.0741 8.17846 33.7964 6.22583 30.8741C4.27319 27.9517 3.23098 24.516 3.23098 21.0014C3.23654 16.2901 5.11055 11.7733 8.44194 8.44195C11.7733 5.11056 16.2901 3.23655 21.0014 3.23099Z" fill="#757F8C"/>
<path d="M21.0013 35.5407C21.4297 35.5406 21.8406 35.3704 22.1434 35.0674C23.1838 34.027 32.3097 24.7008 32.3097 17.7703C32.3097 14.7712 31.1183 11.8948 28.9976 9.77408C26.8768 7.65333 24.0005 6.46191 21.0013 6.46191C18.0021 6.46191 15.1258 7.65333 13.005 9.77408C10.8843 11.8948 9.69287 14.7712 9.69287 17.7703C9.69287 24.7008 18.8188 34.027 19.8591 35.0674C20.162 35.3704 20.5729 35.5406 21.0013 35.5407ZM21.0013 9.69289C23.1428 9.69546 25.1958 10.5473 26.7101 12.0616C28.2243 13.5758 29.0762 15.6289 29.0787 17.7703C29.0787 21.9157 23.9948 28.3211 21.0013 31.5844C18.0078 28.3211 12.9238 21.9157 12.9238 17.7703C12.9264 15.6289 13.7783 13.5758 15.2925 12.0616C16.8068 10.5473 18.8598 9.69546 21.0013 9.69289Z" fill="#C40000"/>
<path d="M25.8478 17.7703C25.8478 16.8118 25.5636 15.8747 25.0311 15.0777C24.4985 14.2807 23.7416 13.6596 22.856 13.2927C21.9705 12.9259 20.996 12.83 20.0559 13.017C19.1158 13.204 18.2522 13.6655 17.5744 14.3433C16.8966 15.0211 16.435 15.8847 16.248 16.8248C16.061 17.7649 16.157 18.7394 16.5238 19.625C16.8906 20.5105 17.5118 21.2675 18.3088 21.8C19.1058 22.3325 20.0428 22.6168 21.0014 22.6168C22.2867 22.6168 23.5195 22.1062 24.4283 21.1973C25.3372 20.2884 25.8478 19.0557 25.8478 17.7703ZM19.3859 17.7703C19.3859 17.4508 19.4806 17.1384 19.6581 16.8728C19.8357 16.6071 20.088 16.4001 20.3832 16.2778C20.6783 16.1555 21.0032 16.1235 21.3165 16.1858C21.6299 16.2482 21.9178 16.402 22.1437 16.628C22.3696 16.8539 22.5235 17.1418 22.5858 17.4551C22.6482 17.7685 22.6162 18.0933 22.4939 18.3885C22.3716 18.6837 22.1646 18.936 21.8989 19.1135C21.6332 19.291 21.3209 19.3858 21.0014 19.3858C20.5729 19.3858 20.162 19.2156 19.8591 18.9126C19.5561 18.6097 19.3859 18.1988 19.3859 17.7703Z" fill="#C40000"/>
<path d="M67.8505 50.0801H61.3885V53.3111H67.8505V50.0801Z" fill="#C40000"/>
</svg>
