<svg width="94" height="94" viewBox="0 0 94 94" fill="none" xmlns="http://www.w3.org/2000/svg">
<path d="M78.8386 78.8389H81.8709V81.8711H66.7031V78.8389H78.8386Z" fill="#757F8C"/>
<path d="M72.7742 78.8389H75.8064V81.8711H72.7742V78.8389Z" fill="#757F8C"/>
<path d="M66.7097 78.8389H69.742V81.8711H66.7097V78.8389Z" fill="#757F8C"/>
<path d="M59.1292 72.7744H86.4195V75.8067H59.1292V72.7744Z" fill="#757F8C"/>
<path d="M72.7742 66.7095H86.4193V69.7417H72.7742V66.7095Z" fill="#757F8C"/>
<path d="M59.1292 66.7095H69.7421H77.1562V69.7417H59.1292V66.7095Z" fill="#757F8C"/>
<path d="M91.7473 61.2892C93.2175 56.6801 94 51.8882 94 47C94 21.0851 72.9171 0 47 0C21.0829 0 0 21.0851 0 47C0 48.6375 0.0895759 50.2869 0.257623 51.9074C0.105863 53.0371 0 54.1787 0 55.3387C0 62.0991 2.63176 68.4531 7.4126 73.2339L20.7683 86.5889C25.5469 91.3682 31.9009 94 38.6613 94C44.7488 94 50.4949 91.8487 55.0707 87.9355H89.4516C91.959 87.9355 94 85.8945 94 83.3871V65.1936C94 63.5257 93.0887 62.0806 91.7473 61.2892ZM72.7742 28.8065C72.7742 34.2432 71.0715 39.2846 68.1866 43.4481C67.9874 40.2833 65.8968 37.5923 62.8224 36.6706L53.0645 33.7428V31.4382C55.8103 29.5179 57.6129 26.3383 57.6129 22.7419V6.06452H45.4084C40.4336 6.06452 36.3871 10.111 36.3871 15.0858V22.7419C36.3871 26.3383 38.1897 29.5194 40.9355 31.4382V33.7428L31.1761 36.6706C28.1017 37.5923 26.0103 40.2833 25.8119 43.4481C22.9285 39.2846 21.2258 34.2432 21.2258 28.8065C21.2258 14.5942 32.7878 3.03226 47 3.03226C61.2122 3.03226 72.7742 14.5942 72.7742 28.8065ZM54.5806 14.7156C53.8677 15.9208 52.607 16.6774 51.1908 16.6774H39.4194V15.0858C39.4194 11.7833 42.1059 9.09677 45.4084 9.09677H54.5806V14.7156ZM39.4194 19.7097H51.1908C52.4094 19.7097 53.5635 19.3869 54.5806 18.8243V22.7419C54.5806 26.9217 51.1797 30.3226 47 30.3226C42.8203 30.3226 39.4194 26.9217 39.4194 22.7419V19.7097ZM51.9807 36.584L52.9387 36.872L52.0518 41.313L49.309 39.2572L51.9807 36.584ZM47 33.3548C48.0534 33.3548 49.0714 33.1957 50.0323 32.9077V34.2432L47 37.2755L43.9677 34.2432V32.9077C44.9286 33.1957 45.9466 33.3548 47 33.3548ZM42.0193 36.584L44.691 39.2557L41.9482 41.3116L41.0613 36.8705L42.0193 36.584ZM38.146 37.7455L39.9213 46.6239L47 41.3145L54.0787 46.6239L55.854 37.7455L61.9518 39.5756C63.8914 40.156 65.1936 41.9075 65.1936 43.9315V47.0437C60.5282 51.6987 54.0957 54.5806 47 54.5806C39.9043 54.5806 33.4718 51.6987 28.8065 47.0437V43.9315C28.8065 41.9075 30.1086 40.156 32.0482 39.5756L38.146 37.7455ZM27.6434 7.53401C21.8551 12.8064 18.1935 20.3767 18.1935 28.8065C18.1935 44.691 31.1154 57.6129 47 57.6129C62.8846 57.6129 75.8064 44.691 75.8064 28.8065C75.8064 20.3767 72.1449 12.8064 66.3566 7.53401C80.9189 14.7067 90.9677 29.6993 90.9677 47C90.9677 51.6713 90.2112 56.2515 88.7772 60.6452H77.8075L65.1936 51.635V60.6452H56.0968C53.5894 60.6452 51.5484 62.6862 51.5484 65.1936V75.6273L43.7464 71.7252C43.129 71.4187 42.4427 71.2581 41.7587 71.2581H41.4085C39.577 71.2581 37.9536 72.3574 37.2725 74.0586L36.0281 77.1708C35.6216 78.1835 34.6541 78.8387 33.5658 78.8387C32.8574 78.8387 32.1918 78.5626 31.6899 78.0607L15.9393 62.3116C15.4374 61.8096 15.1613 61.1426 15.1613 60.4342C15.1613 59.3445 15.8165 58.3784 16.8292 57.9719L19.9429 56.7275C21.6426 56.0479 22.7419 54.423 22.7419 52.5915V52.2413C22.7419 51.5573 22.5813 50.871 22.2718 50.2506L15.812 37.3332C15.0539 35.8141 13.5267 34.871 11.8307 34.871C10.6581 34.871 9.5106 35.3455 8.68147 36.1746L7.4126 37.4435C5.74027 39.1158 4.34851 40.9903 3.22325 42.9972C4.63648 27.4088 14.2167 14.1471 27.6434 7.53401ZM38.6613 90.9677C32.7108 90.9677 27.1178 88.6513 22.91 84.4435L9.55428 71.0885C5.34865 66.8822 3.03226 61.2892 3.03226 55.3387C3.03226 49.3882 5.34865 43.7953 9.5565 39.5874L10.8254 38.3185C11.0889 38.055 11.4561 37.9032 11.8307 37.9032C12.3719 37.9032 12.8597 38.2053 13.101 38.6887L19.5594 51.6017C19.6579 51.8016 19.7112 52.0214 19.7112 52.2413V52.5915C19.7112 53.177 19.361 53.6952 18.8184 53.9107L15.7024 55.1551C13.5312 56.0257 12.129 58.0978 12.129 60.4342C12.129 61.9518 12.722 63.3806 13.7954 64.454L29.546 80.2046C30.618 81.278 32.0482 81.871 33.5658 81.871C35.9022 81.871 37.9743 80.4688 38.8434 78.2976L40.0878 75.1831C40.3048 74.6405 40.823 74.2903 41.4085 74.2903H41.7587C41.9786 74.2903 42.1984 74.3421 42.3939 74.4406L55.3113 80.9004C55.7962 81.1433 56.0968 81.6281 56.0968 82.1693C56.0968 82.5439 55.945 82.9096 55.6815 83.1746L54.4126 84.4435C50.2047 88.6513 44.6118 90.9677 38.6613 90.9677ZM90.9677 83.3871C90.9677 84.2236 90.2881 84.9032 89.4516 84.9032H58.1644C58.7729 84.1237 59.129 83.1628 59.129 82.1693C59.129 80.4733 58.1859 78.9461 56.6668 78.1865L54.5806 77.1434V65.1936C54.5806 64.357 55.2602 63.6774 56.0968 63.6774H68.2258V57.5263L76.8377 63.6774H89.4516C90.2881 63.6774 90.9677 64.357 90.9677 65.1936V83.3871Z" fill="#C40000"/>
</svg>
