<svg width="76" height="76" viewBox="0 0 76 76" fill="none" xmlns="http://www.w3.org/2000/svg">
<path d="M21 47H31V71H21V47Z" fill="#C40000"/>
<path d="M67.4193 50.2581H63.0973C63.8754 49.231 64.3548 47.9657 64.3548 46.5806C64.3548 45.2285 63.2553 44.129 61.9032 44.129H60.0645V41.0705C69.1928 38.8571 76 30.638 76 20.8387C76 9.34797 66.652 0 55.1613 0C43.6705 0 34.3226 9.34797 34.3226 20.8387C34.3226 30.638 41.1297 38.8571 50.258 41.0705V44.129H48.9634C48.0183 44.129 47.0696 44.3535 46.2227 44.7749L38.4878 48.6438C37.979 48.8988 37.4104 49.0323 36.843 49.0323H30.6451V51.4839H36.843C37.7881 51.4839 38.7368 51.2594 39.5837 50.8381L47.3186 46.9691C47.8274 46.7141 48.396 46.5806 48.9634 46.5806H61.9032C61.9032 48.6079 60.253 50.2581 58.2258 50.2581H50.8279L47.1714 55.7449C46.2365 57.1484 44.9454 58.2869 43.4377 59.0398C42.0964 59.7102 40.5964 60.0645 39.0983 60.0645H36.7742V62.5161H39.0983C40.9747 62.5161 42.8553 62.0726 44.5336 61.2329C46.4226 60.289 48.0393 58.8609 49.2112 57.1041L50.258 55.533V69.871H46.5118C45.9444 69.871 45.3758 69.7375 44.867 69.4837L39.5825 66.8406C38.7368 66.418 37.7881 66.1936 36.843 66.1936H30.6451V68.6452H36.843C37.4104 68.6452 37.979 68.7786 38.4878 69.0324L43.7723 71.6756C44.618 72.0981 45.5667 72.3226 46.5118 72.3226H50.258V76H60.0645V72.3226H67.4193C69.4466 72.3226 71.0968 70.6724 71.0968 68.6452C71.0968 67.7001 70.7281 66.846 70.1409 66.1936C70.7293 65.5411 71.0968 64.687 71.0968 63.7419C71.0968 62.7968 70.7281 61.9427 70.1409 61.2903C70.7293 60.6379 71.0968 59.7838 71.0968 58.8387C71.0968 57.8936 70.7281 57.0395 70.1409 56.3871C70.7293 55.7347 71.0968 54.8806 71.0968 53.9355C71.0968 51.9082 69.4466 50.2581 67.4193 50.2581ZM36.7742 20.8387C36.7742 10.7001 45.0226 2.45161 55.1613 2.45161C65.2999 2.45161 73.5484 10.7001 73.5484 20.8387C73.5484 30.9774 65.2999 39.2258 55.1613 39.2258C45.0226 39.2258 36.7742 30.9774 36.7742 20.8387ZM52.7097 41.5206C53.5153 41.6152 54.3299 41.6774 55.1613 41.6774C55.9926 41.6774 56.8073 41.6152 57.6129 41.5206V44.129H52.7097V41.5206ZM68.6451 53.9355C68.6451 54.6118 68.0945 55.1613 67.4193 55.1613H58.8387C58.1635 55.1613 57.6129 54.6118 57.6129 53.9355C57.6129 53.2591 58.1635 52.7097 58.8387 52.7097H67.4193C68.0945 52.7097 68.6451 53.2591 68.6451 53.9355ZM68.6451 58.8387C68.6451 59.5151 68.0945 60.0645 67.4193 60.0645H58.8387C58.1635 60.0645 57.6129 59.5151 57.6129 58.8387C57.6129 58.1624 58.1635 57.6129 58.8387 57.6129H67.4193C68.0945 57.6129 68.6451 58.1624 68.6451 58.8387ZM68.6451 63.7419C68.6451 64.4183 68.0945 64.9677 67.4193 64.9677H58.8387C58.1635 64.9677 57.6129 64.4183 57.6129 63.7419C57.6129 63.0656 58.1635 62.5161 58.8387 62.5161H67.4193C68.0945 62.5161 68.6451 63.0656 68.6451 63.7419ZM52.7097 73.5484V52.7097H55.3869C55.2493 53.0945 55.1613 53.5039 55.1613 53.9355C55.1613 54.8806 55.53 55.7347 56.1171 56.3871C55.5288 57.0395 55.1613 57.8936 55.1613 58.8387C55.1613 59.7838 55.53 60.6379 56.1171 61.2903C55.5288 61.9427 55.1613 62.7968 55.1613 63.7419C55.1613 64.687 55.53 65.5411 56.1171 66.1936C55.5288 66.846 55.1613 67.7001 55.1613 68.6452C55.1613 70.2409 56.1896 71.5894 57.6129 72.0969V73.5484H52.7097ZM67.4193 69.871H58.8387C58.1635 69.871 57.6129 69.3215 57.6129 68.6452C57.6129 67.9688 58.1635 67.4194 58.8387 67.4194H67.4193C68.0945 67.4194 68.6451 67.9688 68.6451 68.6452C68.6451 69.3215 68.0945 69.871 67.4193 69.871Z" fill="#C40000"/>
<path d="M7 41.6772H9.45161V44.1289H7V41.6772Z" fill="#C40000"/>
<path d="M11.9032 41.6772H14.3548V44.1289H11.9032V41.6772Z" fill="#C40000"/>
<path d="M16.8065 41.6772H19.2581V44.1289H16.8065V41.6772Z" fill="#C40000"/>
<path d="M11.9032 46.5806H14.3548V49.0322H11.9032V46.5806Z" fill="#C40000"/>
<path d="M16.8065 46.5806H19.2581V49.0322H16.8065V46.5806Z" fill="#C40000"/>
<path d="M7 73.5483H9.45161V76H7V73.5483Z" fill="#C40000"/>
<path d="M11.9032 73.5483H14.3548V76H11.9032V73.5483Z" fill="#C40000"/>
<path d="M16.8065 73.5483H19.2581V76H16.8065V73.5483Z" fill="#C40000"/>
<path d="M11.9032 68.645H14.3548V71.0966H11.9032V68.645Z" fill="#C40000"/>
<path d="M16.8065 68.645H19.2581V71.0966H16.8065V68.645Z" fill="#C40000"/>
<path d="M69.4 14.6136C68.7237 14.615 68.1216 15.0459 67.8971 15.6892H60.7024C58.0715 12.5134 53.3856 12.0897 50.2363 14.7426C49.896 15.0293 49.5819 15.3461 49.2976 15.6892H42.1035C42.0277 15.4644 41.9012 15.2603 41.7339 15.0933C41.4364 14.7845 41.0269 14.6113 40.6 14.6136C39.7163 14.6136 39 15.3359 39 16.227V24.8319C38.9983 25.7208 39.7117 26.4428 40.5933 26.4445C41.2715 26.4458 41.8765 26.0148 42.1019 25.3697H49.2976C51.9285 28.5454 56.6144 28.9692 59.7638 26.3161C60.1041 26.0295 60.4182 25.7127 60.7024 25.3697H67.8981C68.191 26.2082 69.1025 26.6485 69.9341 26.3531C70.5738 26.1259 71.0013 25.5158 71 24.8319V16.227C71 15.3359 70.2837 14.6136 69.4 14.6136ZM41.1333 24.8319C41.1333 25.1289 40.8945 25.3697 40.6 25.3697C40.3055 25.3697 40.0667 25.1289 40.0667 24.8319V16.227C40.0667 15.93 40.3055 15.6892 40.6 15.6892C40.7437 15.6887 40.8812 15.7483 40.9797 15.8537C41.0793 15.9518 41.1347 16.0867 41.1333 16.227V24.8319ZM47.5568 21.1065C47.5611 21.1656 47.568 21.2243 47.5739 21.2834C47.5867 21.4173 47.6027 21.5523 47.6229 21.683C47.6325 21.747 47.6427 21.811 47.6539 21.875C47.6779 22.0095 47.7072 22.1439 47.7371 22.2757C47.7493 22.3294 47.7605 22.3832 47.7739 22.437C47.8208 22.6183 47.8731 22.7979 47.9339 22.9748C47.9435 23.0033 47.9552 23.0286 47.9653 23.0587C48.0187 23.2077 48.0752 23.355 48.1371 23.5002C48.1616 23.5578 48.1904 23.6143 48.2144 23.6713C48.2681 23.7885 48.3248 23.9045 48.3845 24.0192C48.4149 24.0773 48.4453 24.1349 48.4773 24.1924C48.4965 24.2268 48.5131 24.2623 48.5307 24.2962L42.2 24.294V16.7648H48.5328C48.5131 16.7987 48.4965 16.8342 48.4795 16.868C48.4475 16.9256 48.4171 16.9831 48.3867 17.0412C48.3269 17.1558 48.2699 17.2725 48.216 17.3897C48.1904 17.4462 48.1627 17.5027 48.1392 17.5597C48.0768 17.7065 48.0187 17.8549 47.9659 18.0055C47.9563 18.0324 47.9451 18.0593 47.9355 18.0851C47.8752 18.2626 47.8229 18.4427 47.7755 18.6229C47.7621 18.6767 47.7515 18.7305 47.7392 18.7799C47.7077 18.9133 47.6795 19.0488 47.6555 19.1822C47.6443 19.2462 47.6341 19.3097 47.6245 19.3737C47.6043 19.5065 47.5883 19.6426 47.5755 19.7738C47.5696 19.833 47.5627 19.8916 47.5584 19.9507C47.5424 20.1433 47.5333 20.3358 47.5333 20.5294C47.5333 20.723 47.5424 20.9156 47.5568 21.1065ZM61.3781 21.0715C61.2932 22.1398 60.9411 23.169 60.3547 24.0628C60.2573 24.212 60.1531 24.3575 60.0421 24.4995L60.0395 24.5027C57.8669 27.3088 53.8497 27.8077 51.0668 25.6168C50.6537 25.2916 50.2817 24.9163 49.9595 24.4995H49.9579C49.0725 23.3694 48.5938 21.9697 48.6 20.5294C48.6 20.3473 48.6073 20.1664 48.6219 19.9868C48.7068 18.9186 49.0589 17.8897 49.6453 16.996C49.7427 16.8469 49.8469 16.7013 49.9579 16.5593V16.5561C52.1348 13.7481 56.157 13.2512 58.9417 15.4464C60.4929 16.6693 61.3995 18.544 61.4 20.5294C61.4 20.7115 61.3927 20.8922 61.3781 21.0715ZM67.8981 24.294H64.6336H61.4672C61.4875 24.2596 61.5067 24.2241 61.5232 24.1897C61.5547 24.1327 61.5851 24.0752 61.6155 24.0176C61.6752 23.9033 61.7317 23.7876 61.7851 23.6707C61.8117 23.6132 61.8384 23.5556 61.8635 23.4976C61.9246 23.3542 61.9813 23.2084 62.0336 23.0603C62.0443 23.0307 62.0565 23.0017 62.0667 22.9721C62.1269 22.7957 62.1792 22.6161 62.2267 22.4343C62.2405 22.3805 62.2517 22.3268 62.2645 22.273C62.2949 22.1412 62.3232 22.0089 62.3467 21.8755C62.3584 21.811 62.3685 21.7465 62.3781 21.6814C62.3984 21.5496 62.4144 21.4168 62.4272 21.2834C62.4331 21.2243 62.44 21.1651 62.4443 21.1059C62.4576 20.915 62.4667 20.723 62.4667 20.5294C62.4667 20.3358 62.4576 20.1433 62.4432 19.9524C62.4389 19.8932 62.432 19.8346 62.4261 19.7754C62.4133 19.6415 62.3973 19.5065 62.3771 19.3758C62.3675 19.3118 62.3573 19.2478 62.3461 19.1838C62.3221 19.0494 62.2928 18.9149 62.2629 18.7832C62.2507 18.7294 62.2395 18.6756 62.2261 18.6218C62.1792 18.4406 62.1269 18.261 62.0661 18.084C62.0565 18.0555 62.0448 18.0302 62.0347 18.0001C61.9813 17.8512 61.9248 17.7038 61.8629 17.5586C61.8384 17.501 61.8096 17.4446 61.7856 17.3876C61.7319 17.2703 61.6752 17.1544 61.6155 17.0396C61.5851 16.9815 61.5547 16.924 61.5227 16.8664C61.5035 16.832 61.4869 16.7965 61.4693 16.7626H67.8L67.8981 24.294ZM69.9333 24.8319C69.9333 25.1289 69.6945 25.3697 69.4 25.3697C69.1055 25.3697 68.8667 25.1289 68.8667 24.8319V16.227C68.8662 16.082 68.9253 15.9434 69.0299 15.8441C69.1271 15.7437 69.2609 15.6878 69.4 15.6892C69.6945 15.6892 69.9333 15.93 69.9333 16.227V24.8319Z" fill="#C40000"/>
<path d="M51.0085 16.5353C48.8024 18.7399 48.801 22.3153 51.0056 24.5215C53.2101 26.7276 56.7856 26.7289 58.9917 24.5244C60.0522 23.4647 60.6477 22.0268 60.6471 20.5277C60.6514 19.0305 60.0563 17.5939 58.9946 16.5382C56.7901 14.3322 53.2146 14.3308 51.0085 16.5353ZM57.7697 16.9648L55.7245 19.01C55.2666 18.8063 54.7437 18.8063 54.2858 19.01L52.2406 16.9648C53.867 15.7008 56.1434 15.7008 57.7697 16.9648ZM55.404 20.9266C55.1809 21.1399 54.8294 21.1399 54.6063 20.9266C54.5001 20.8211 54.4405 20.6774 54.441 20.5277C54.441 20.2161 54.6936 19.9636 55.0053 19.9636C55.1549 19.9636 55.2983 20.0231 55.404 20.1288C55.6243 20.3491 55.6243 20.7063 55.404 20.9266ZM50.4916 20.5277C50.4897 19.526 50.8236 18.5526 51.44 17.7631L53.4818 19.8021C53.2561 20.2595 53.2561 20.7959 53.4818 21.2532L51.4422 23.2923C50.825 22.503 50.4903 21.5296 50.4916 20.5277ZM52.2406 24.0906L54.2796 22.051C54.7369 22.2767 55.2734 22.2767 55.7307 22.051L57.7697 24.0906C56.1434 25.3545 53.867 25.3545 52.2406 24.0906ZM58.5703 23.2923L56.5285 21.2532C56.7542 20.7959 56.7542 20.2595 56.5285 19.8021L58.5681 17.7631C59.1853 18.5524 59.52 19.5257 59.5187 20.5277C59.5206 21.5293 59.1867 22.5027 58.5703 23.2923Z" fill="#C40000"/>
</svg>
