<svg width="81" height="39" viewBox="0 0 81 39" fill="none" xmlns="http://www.w3.org/2000/svg">
<path d="M76.95 4.77323C75.238 4.77677 73.7141 5.85846 73.1457 7.47323H54.9342C48.2747 -0.498523 36.4136 -1.56232 28.4418 5.09723C27.5805 5.81678 26.7854 6.61193 26.0658 7.47323H7.85566C7.66396 6.90893 7.34367 6.39677 6.92011 5.97743C6.16714 5.20219 5.13068 4.76749 4.05001 4.77323C1.81323 4.77323 7.37763e-06 6.58645 7.37763e-06 8.82323V30.4232C-0.00421137 32.6548 1.80141 34.4672 4.03296 34.4714C5.74983 34.4746 7.28123 33.3926 7.85161 31.7732H26.0658C32.7254 39.745 44.5865 40.8088 52.5584 34.1491C53.4197 33.4295 54.2148 32.6344 54.9342 31.7732H73.1484C73.8897 33.878 76.197 34.9834 78.3019 34.2419C79.9212 33.6715 81.0034 32.1401 81 30.4232V8.82323C81 6.58645 79.1868 4.77323 76.95 4.77323ZM5.40001 30.4232C5.40001 31.1688 4.79554 31.7732 4.05001 31.7732C3.30447 31.7732 2.70001 31.1688 2.70001 30.4232V8.82323C2.70001 8.07769 3.30447 7.47323 4.05001 7.47323C4.41383 7.47205 4.76179 7.62156 5.01121 7.88633C5.26315 8.13253 5.40355 8.47105 5.40001 8.82323V30.4232ZM21.6594 21.0718C21.6702 21.2203 21.6878 21.3674 21.7026 21.5159C21.735 21.8521 21.7755 22.1909 21.8268 22.519C21.8511 22.6796 21.8768 22.8403 21.9051 23.0009C21.9659 23.3384 22.0401 23.6759 22.1157 24.0067C22.1468 24.1417 22.1751 24.2767 22.2089 24.4117C22.3277 24.8666 22.46 25.3175 22.6139 25.7617C22.6382 25.8332 22.6679 25.8967 22.6935 25.9723C22.8285 26.3462 22.9716 26.7161 23.1282 27.0806C23.1903 27.2251 23.2632 27.3668 23.324 27.5099C23.4598 27.8042 23.6034 28.0953 23.7546 28.3834C23.8316 28.5292 23.9085 28.6736 23.9895 28.8181C24.0381 28.9045 24.08 28.9936 24.1245 29.0786L8.10001 29.0732V10.1732H24.1299C24.08 10.2583 24.0381 10.3474 23.9949 10.4324C23.9139 10.5769 23.837 10.7213 23.76 10.8671C23.6088 11.1547 23.4644 11.4476 23.328 11.7419C23.2632 11.8837 23.193 12.0254 23.1336 12.1685C22.9757 12.5371 22.8285 12.9097 22.6949 13.2877C22.6706 13.3552 22.6422 13.4227 22.6179 13.4875C22.4654 13.933 22.3331 14.3852 22.2129 14.8375C22.1792 14.9725 22.1522 15.1075 22.1211 15.2317C22.0415 15.5665 21.9699 15.9067 21.9092 16.2415C21.8808 16.4021 21.8552 16.5614 21.8309 16.7221C21.7796 17.0555 21.7391 17.3971 21.7067 17.7265C21.6918 17.875 21.6743 18.0221 21.6635 18.1706C21.623 18.6539 21.6 19.1372 21.6 19.6232C21.6 20.1092 21.623 20.5925 21.6594 21.0718ZM56.6446 20.984C56.4297 23.6656 55.5383 26.249 54.054 28.4927C53.8075 28.8672 53.5437 29.2325 53.2629 29.5889L53.2562 29.597C47.7568 36.641 37.5882 37.8931 30.5441 32.3937C29.4984 31.5773 28.5569 30.6352 27.7412 29.5889H27.7371C25.4961 26.7521 24.2843 23.2385 24.3 19.6232C24.3 19.1661 24.3184 18.712 24.3554 18.2611C24.5703 15.5798 25.4617 12.9969 26.946 10.7537C27.1925 10.3793 27.4563 10.0139 27.7371 9.65753V9.64943C33.2475 2.60074 43.4287 1.35351 50.4773 6.86387C54.4038 9.93343 56.6988 14.6394 56.7 19.6232C56.7 20.0804 56.6816 20.534 56.6446 20.984ZM72.9 29.0732H56.8701C56.9214 28.9868 56.97 28.8977 57.0118 28.8113C57.0915 28.6682 57.1684 28.5238 57.2454 28.3793C57.3966 28.0923 57.5397 27.802 57.6747 27.5086C57.7422 27.3641 57.8097 27.2197 57.8731 27.0739C58.0279 26.7139 58.1715 26.3481 58.3038 25.9763C58.3308 25.9021 58.3619 25.8292 58.3875 25.7549C58.5401 25.3121 58.6724 24.8612 58.7925 24.4049C58.8276 24.2699 58.8559 24.1349 58.8883 23.9999C58.9653 23.6692 59.0369 23.3371 59.0963 23.0023C59.126 22.8403 59.1516 22.6783 59.1759 22.5149C59.2272 22.1842 59.2677 21.8507 59.3001 21.5159C59.3149 21.3674 59.3325 21.2189 59.3433 21.0704C59.3771 20.5912 59.4 20.1092 59.4 19.6232C59.4 19.1372 59.3771 18.6539 59.3406 18.1747C59.3298 18.0262 59.3123 17.879 59.2974 17.7305C59.265 17.3944 59.2245 17.0555 59.1732 16.7275C59.1489 16.5668 59.1232 16.4062 59.0949 16.2455C59.0341 15.908 58.9599 15.5705 58.8843 15.2398C58.8533 15.1048 58.8249 14.9698 58.7911 14.8348C58.6724 14.3798 58.5401 13.9289 58.3862 13.4848C58.3619 13.4132 58.3321 13.3498 58.3065 13.2742C58.1715 12.9002 58.0284 12.5303 57.8718 12.1658C57.8097 12.0214 57.7368 11.8796 57.6761 11.7365C57.5402 11.4422 57.3966 11.1511 57.2454 10.8631C57.1684 10.7173 57.0915 10.5728 57.0105 10.4284C56.9619 10.342 56.9201 10.2529 56.8755 10.1678H72.9V29.0732ZM78.3 30.4232C78.3 31.1688 77.6955 31.7732 76.95 31.7732C76.2045 31.7732 75.6 31.1688 75.6 30.4232V8.82323C75.5988 8.4594 75.7483 8.11144 76.0131 7.86203C76.2593 7.61008 76.5978 7.46968 76.95 7.47323C77.6955 7.47323 78.3 8.07769 78.3 8.82323V30.4232Z" fill="#C40000"/>
<path d="M30.9369 10.0705C25.6582 15.3454 25.655 23.9007 30.93 29.1795C36.2049 34.4582 44.7604 34.4614 50.0391 29.1865C52.5766 26.6508 54.0015 23.2104 54.0001 19.6232C54.0103 16.0408 52.5863 12.6034 50.046 10.0774C44.771 4.79871 36.2157 4.7955 30.9369 10.0705ZM47.1151 11.098L42.2214 15.9917C41.1257 15.5044 39.8746 15.5044 38.7789 15.9917L33.8851 11.098C37.7767 8.07364 43.2238 8.07364 47.1151 11.098ZM41.4546 20.5777C40.9207 21.0882 40.0796 21.0882 39.5457 20.5777C39.2915 20.3252 39.1491 19.9815 39.1501 19.6232C39.1503 18.8777 39.7548 18.2734 40.5005 18.2736C40.8584 18.2736 41.2015 18.4158 41.4546 18.6688C41.9816 19.196 41.9816 20.0505 41.4546 20.5777ZM29.7001 19.6232C29.6956 17.2265 30.4946 14.8974 31.9695 13.0082L36.8551 17.8871C36.3151 18.9815 36.3151 20.265 36.8551 21.3593L31.9749 26.2382C30.498 24.3498 29.6971 22.0207 29.7001 19.6232ZM33.8851 28.1485L38.764 23.2682C39.8584 23.8082 41.1419 23.8082 42.2362 23.2682L47.1151 28.1485C43.2238 31.1728 37.7767 31.1728 33.8851 28.1485ZM49.0308 26.2382L44.1451 21.3593C44.6851 20.265 44.6851 18.9815 44.1451 17.8871L49.0254 13.0082C50.5023 14.8967 51.3032 17.2258 51.3001 19.6232C51.3047 22.02 50.5057 24.3491 49.0308 26.2382Z" fill="#C40000"/>
</svg>
