<svg width="81" height="71" viewBox="0 0 81 71" fill="none" xmlns="http://www.w3.org/2000/svg">
<path d="M24.0516 67.5001H35.1C44.7879 67.4889 52.6389 59.638 52.65 49.9501V38.9057C53.2143 38.7144 53.7263 38.3946 54.1458 37.9715C54.921 37.2181 55.3559 36.1813 55.35 35.1001C55.3429 33.39 54.2624 31.8685 52.65 31.2985V28.3501C52.65 27.6045 53.2545 27.0001 54 27.0001H56.9484C57.6799 29.0997 59.9749 30.2087 62.0744 29.4773C63.2348 29.073 64.1473 28.1607 64.5516 27.0001H81V2.70007L64.5557 2.70007C64.3638 2.13611 64.0437 1.62446 63.6201 1.20562C62.868 0.429036 61.8312 -0.00650773 60.75 7.35156e-05C59.0399 0.00716102 57.5184 1.08767 56.9484 2.70007L45.9 2.70007C36.2121 2.71121 28.3611 10.5621 28.35 20.2501V31.2985C26.2504 32.03 25.1414 34.325 25.8728 36.4244C26.2771 37.5849 27.1893 38.4973 28.35 38.9017V41.8501C28.35 42.5956 27.7455 43.2001 27 43.2001H24.0516C23.3201 41.1005 21.0251 39.9915 18.9257 40.7228C17.7652 41.1271 16.8527 42.0394 16.4484 43.2001H7.62939e-06V67.5001H16.4444C16.6364 68.0639 16.9567 68.5753 17.3799 68.9945C18.132 69.7711 19.1688 70.2066 20.25 70.2001C21.9601 70.193 23.4816 69.1125 24.0516 67.5001ZM78.3 5.40007V24.3001H64.8V5.40007L78.3 5.40007ZM60.75 2.70007C61.114 2.6994 61.462 2.84942 61.7112 3.11452C61.9635 3.36005 62.1041 3.69806 62.1 4.05007V25.6501C62.1 26.3956 61.4955 27.0001 60.75 27.0001C60.0045 27.0001 59.4 26.3956 59.4 25.6501V4.05007C59.4 3.30454 60.0045 2.70007 60.75 2.70007ZM31.05 31.0501V20.2501C31.0596 12.0527 37.7026 5.40969 45.9 5.40007H56.7V24.3001H54C51.7632 24.3001 49.95 26.1133 49.95 28.3501V31.0501H31.05ZM29.7 36.4501C28.9545 36.4501 28.35 35.8456 28.35 35.1001C28.35 34.3545 28.9545 33.7501 29.7 33.7501H51.3C52.0455 33.7501 52.65 34.3545 52.65 35.1001C52.6512 35.4642 52.5017 35.8127 52.2369 36.0626C51.9897 36.313 51.6518 36.4528 51.3 36.4501H29.7ZM31.05 41.8501V39.1501H49.95V49.9501C49.9404 58.1474 43.2974 64.7905 35.1 64.8001H24.3L24.3 45.9001H27C29.2368 45.9001 31.05 44.0869 31.05 41.8501ZM2.7 64.8001V45.9001H16.2V64.8001H2.7ZM19.2888 67.087C19.0369 66.8408 18.8965 66.5023 18.9 66.1501L18.9 44.5501C18.9 43.8045 19.5045 43.2001 20.25 43.2001C20.9955 43.2001 21.6 43.8045 21.6 44.5501L21.6 66.1501C21.6 66.8956 20.9955 67.5001 20.25 67.5001C19.8863 67.5006 19.5387 67.3512 19.2888 67.087Z" fill="#C40000"/>
</svg>
